<?xml version="1.0" encoding="utf-8"?>
<!-- Generator: Adobe Illustrator 16.0.0, SVG Export Plug-In . SVG Version: 6.00 Build 0)  -->
<!DOCTYPE svg PUBLIC "-//W3C//DTD SVG 1.1//EN" "http://www.w3.org/Graphics/SVG/1.1/DTD/svg11.dtd">
<svg version="1.1" id="Capa_1" xmlns="http://www.w3.org/2000/svg" xmlns:xlink="http://www.w3.org/1999/xlink" x="0px" y="0px"
	 width="25px" height="25px" viewBox="0 0 25 25" enable-background="new 0 0 25 25" xml:space="preserve">
<g>
	<g>
		<g>
			<path fill="#0014B3" d="M23.086,7.088l-0.525-0.165c-0.132-0.033-0.263-0.066-0.428-0.066c-0.592,0-1.118,0.395-1.314,0.954
				l-0.296,0.888V8.042V8.009c0-0.099-0.065-0.197-0.131-0.263L15.001,2.52c-0.066-0.066-0.165-0.099-0.231-0.099H4.219
				c-0.197,0-0.329,0.131-0.329,0.328v1.02H2.674c-0.197,0-0.329,0.131-0.329,0.329v19.688c0,0.197,0.131,0.33,0.329,0.33h15.975
				c0.196,0,0.328-0.133,0.328-0.33v-1.02h1.217c0.197,0,0.328-0.129,0.328-0.326v-4.438l0.92-1.25l0.033-0.1l2.466-7.855
				C24.204,8.075,23.81,7.318,23.086,7.088z M15.1,3.538l4.306,4.142H15.1V3.538z M18.32,23.457H3.003V4.426h0.887v18.014
				c0,0.197,0.131,0.326,0.329,0.326H18.32V23.457L18.32,23.457z M19.898,22.109h-0.033H4.548V3.078h9.894v4.931
				c0,0.197,0.131,0.329,0.327,0.329h5.129v2.465l-1.546,4.865v0.098l0.066,4.176c0,0.131,0.099,0.262,0.23,0.295
				s0.295,0,0.361-0.133l0.888-1.182V22.109L19.898,22.109z M19.043,18.922l-0.065-2.729l1.644,0.525L19.043,18.922z M23.35,8.601
				l-2.367,7.526l-1.906-0.625l2.366-7.493c0.132-0.362,0.526-0.592,0.889-0.46l0.525,0.165C23.251,7.812,23.48,8.239,23.35,8.601z"
				/>
			<path fill="#0014B3" d="M6.783,8.337h4.734c0.197,0,0.328-0.131,0.328-0.329V4.656c0-0.197-0.13-0.329-0.328-0.329H6.783
				c-0.197,0-0.329,0.132-0.329,0.329v3.353C6.454,8.173,6.619,8.337,6.783,8.337z M7.112,4.985h4.076V7.68H7.112V4.985z"/>
			<path fill="#0014B3" d="M6.126,11.427h9.992c0.197,0,0.329-0.131,0.329-0.329s-0.132-0.329-0.329-0.329H6.126
				c-0.197,0-0.329,0.132-0.329,0.329S5.929,11.427,6.126,11.427z"/>
			<path fill="#0014B3" d="M6.126,13.826h9.992c0.197,0,0.329-0.131,0.329-0.328s-0.132-0.329-0.329-0.329H6.126
				c-0.197,0-0.329,0.132-0.329,0.329S5.929,13.826,6.126,13.826z"/>
			<path fill="#0014B3" d="M6.126,16.227h9.992c0.197,0,0.329-0.133,0.329-0.328c0-0.197-0.132-0.33-0.329-0.33H6.126
				c-0.197,0-0.329,0.133-0.329,0.33C5.797,16.094,5.929,16.227,6.126,16.227z"/>
			<path fill="#0014B3" d="M16.414,18.297c0-0.197-0.132-0.328-0.329-0.328H6.126c-0.197,0-0.329,0.131-0.329,0.328
				s0.132,0.328,0.329,0.328h9.992C16.282,18.625,16.414,18.461,16.414,18.297z"/>
			<path fill="#0014B3" d="M17.499,20.367h-4.964c-0.197,0-0.328,0.133-0.328,0.328c0,0.197,0.131,0.33,0.328,0.33h4.931
				c0.197,0,0.329-0.133,0.329-0.33C17.795,20.5,17.663,20.367,17.499,20.367z"/>
		</g>
	</g>
</g>
</svg>
